<?xml version="1.0" encoding="UTF-8"?>
<!DOCTYPE svg PUBLIC "-//W3C//DTD SVG 1.1//EN" "http://www.w3.org/Graphics/SVG/1.1/DTD/svg11.dtd">
<!-- Creator: CorelDRAW 2020 (64-Bit) -->
<svg xmlns="http://www.w3.org/2000/svg" xml:space="preserve" width="104.942mm" height="68.2432mm" version="1.1" style="shape-rendering:geometricPrecision; text-rendering:geometricPrecision; image-rendering:optimizeQuality; fill-rule:evenodd; clip-rule:evenodd"
viewBox="0 0 10983.63 7142.62"
 xmlns:xlink="http://www.w3.org/1999/xlink"
 xmlns:xodm="http://www.corel.com/coreldraw/odm/2003">
 <defs>
  <style type="text/css">
   <![CDATA[
    .fil0 {fill:white;fill-rule:nonzero}
   ]]>
  </style>
 </defs>
 <g id="__x0023_Layer_x0020_1">
  <metadata id="CorelCorpID_0Corel-Layer"/>
  <g id="_1968357509120">
   <path class="fil0" d="M5146.59 0l61.29 0c35.43,6.23 72.17,15.16 100.53,38.87 34.32,27.35 53.02,69.38 61.76,111.51 14.69,72.83 10.51,147.79 5.39,221.45 -10.87,142.48 -30.04,284.58 -27.9,427.81 0.84,156.33 32.83,316.85 121.28,448.36 -112.63,-12.74 -211.4,-79.89 -281.71,-166.29 -116.81,-142.1 -183.77,-319.18 -219.39,-498.02 -25.67,-142.11 -35.99,-293.24 11.9,-431.91 25.01,-74.5 84.82,-142.95 166.85,-151.78z"/>
   <path class="fil0" d="M5822.07 351.64c28.27,-17.57 64.08,-3.43 84.63,19.45 46.97,49.57 69.94,115.97 90.78,179.58 32.64,97.56 19.71,202.93 -3.82,300.96 -38.87,157.36 -106.58,305.42 -176.23,450.97 12.37,-101.56 26.31,-208.05 -5.86,-307.47 -17.4,-58.69 -70.41,-102.77 -72.64,-166.47 -10.6,-119.14 -13.57,-241.25 15.17,-358.24 12.55,-43.62 28.27,-92.26 67.98,-118.77z"/>
   <path class="fil0" d="M4480.13 882.22c89.94,-42.96 198.38,-28.74 284.31,17.3 120.07,64.08 201.82,181.08 255.49,303.19 73.93,162.01 89.83,341.13 129.65,512.91 7.43,33.39 15.16,66.78 21.76,100.45 -73.47,-128.54 -133.83,-265.71 -224.98,-383.46 -62.87,-81.84 -148.25,-147.68 -247.02,-179.49 -86.49,-26.88 -174.65,-58.5 -244.03,-118.77 -37.39,-32.54 -69.19,-78.12 -66.87,-129.73 1.77,-55.06 43.9,-99.98 91.7,-122.39z"/>
   <path class="fil0" d="M6128.61 1172.21c48.54,-46.31 125.83,-43.53 183.12,-15.9 71.15,35.81 110.48,111.6 131.23,185.26 35.43,129.09 30.69,265.81 10.79,397.03 -22.14,135.97 -63.44,269.8 -130.39,390.51 -33.21,61.2 -78.87,114.12 -117,172.06 -63.89,92.36 -126.48,187.68 -210.65,263.1 -35.16,32 -77.85,55.43 -124.72,64.73 20.09,-95.61 54.97,-187.03 87.79,-278.83 58.87,-162.75 72.92,-337.42 75.34,-509.1 -4.37,-163.4 -16.37,-328.58 13.39,-490.31 13.21,-64.09 32.37,-131.97 81.1,-178.57z"/>
   <path class="fil0" d="M5489.86 1305.39c32.74,-36.64 89.18,-37.3 131.23,-17.4 69.47,32.46 119.22,94.95 158.01,159.31 48.08,78.69 71.06,169.73 82.58,260.41 18.04,146.02 13.02,294.26 -9.39,439.43 -14.88,92.26 -35.71,185.08 -78.12,268.87 -20.74,42.32 -51.89,78.96 -91.33,104.81 -0.65,-77.65 2.51,-155.31 4.28,-232.97 0.84,-49.57 -0.93,-100.16 -16.19,-147.68 -25.85,-82.5 -77.84,-153.08 -110.85,-232.42 -58.97,-136.25 -111.7,-279.19 -118.02,-429.02 -0.66,-59.9 5.2,-127.14 47.8,-173.36z"/>
   <path class="fil0" d="M5278.27 1972.22c0.47,-29.85 9.86,-67.06 41.39,-78.03 31.06,-8.28 61.1,10.79 82.03,32.09 40.83,42.49 64.55,98.11 81.93,153.64 29.77,98.76 38.51,202.56 38.41,305.33 -70.21,-27.34 -122.11,-85.85 -161.82,-147.87 -49.47,-79.15 -82.59,-171.03 -81.94,-265.16z"/>
   <path class="fil0" d="M4790.67 2167.99c40.45,-22.14 92.07,-19.16 130.3,6.51 53.66,34.69 86.49,92.53 111.89,149.54 44.08,103.89 64.72,215.86 78.96,327.27 7.44,55.34 5.21,111.79 17.3,166.48 21.2,106.49 70.96,204.05 123.96,297.7 -101.08,-21.48 -191.77,-74.11 -276.87,-130.76 -86.12,-57.1 -167.87,-123.97 -226.18,-210.19 -89.94,-128.34 -125.84,-298.26 -76.92,-449.1 20.93,-62.79 57.48,-125.38 117.56,-157.46z"/>
   <path class="fil0" d="M5241.82 2526.05c34.32,-74.31 114.67,-128.43 197.91,-119.04 83.43,6.79 149,72.27 183.04,144.81 75.52,156.7 86.49,335.55 76.64,506.68 -12.18,164.05 -43.44,328.21 -105.28,481.1 -17.3,43.25 -40.18,84.35 -72.08,118.67 -37.85,-201.62 -43.43,-413.67 -133,-602.01 -37.75,-86.21 -104.07,-156.34 -138.56,-244.22 -37.67,-89.37 -52,-195.95 -8.66,-285.98z"/>
   <path class="fil0" d="M6005.09 2833.05c27.07,-41.84 62.51,-85.19 113.47,-96.72 63.9,-8.83 138.48,7.81 177.92,62.87 39.9,56.45 39.9,130.11 31.34,195.95 -17.67,119.42 -65.47,232.04 -121.09,338.35 -88.07,164.52 -200.23,316.86 -334.9,446.41 -119.23,112.72 -263.2,217.72 -432.46,229.26 99.04,-93.48 162.47,-216.24 224.5,-335.65 76.73,-154.94 143.88,-314.54 201.81,-477.38 40.92,-122.87 70.78,-251.76 139.41,-363.09z"/>
   <path class="fil0" d="M5089.58 3377.68c37.95,-32.18 90.13,-43.25 138.67,-35.63 70.22,8.01 142.2,41.67 177.26,105.85 45.95,82.96 37.3,183.39 16.75,272.49 -37.02,148.43 -111.05,286.82 -208.23,404.47 -56,65.56 -122.03,127.6 -205.73,154.75 10.7,-50.77 26.97,-99.98 38.03,-150.56 15.44,-70.6 -1.58,-142.02 -7.81,-212.52 -9.3,-108.9 -19.07,-217.81 -28.46,-326.72 -5.86,-77.19 18.6,-161.27 79.51,-212.13z"/>
   <path class="fil0" d="M1522.64 5326.18c32.27,-49.01 101.1,-67.42 155.96,-57.39 17.02,39.34 8.93,83.71 10.7,125.37 -1.3,279.29 -10.97,559.04 -42.96,836.65 -18.79,146.3 -38.69,295.48 -100.72,430.88 -54.04,119.88 -123.97,237.81 -228.89,320.03 -65.75,52.26 -156.8,79.23 -238.08,49.47 -66.41,-25.49 -129,-70.12 -162.75,-134.12 -42.6,-77.38 -74.96,-160.05 -100.63,-244.4 -92.63,114.94 -188.79,228.04 -298.82,326.99 -80.92,70.41 -169.45,141.64 -277.43,162.94l-63.7 0c-42.04,-10.05 -79.43,-35.52 -103.7,-71.23 -49.2,-69.57 -66.03,-155.97 -71.61,-239.39l0 -101.38c13.95,-196.71 67.24,-387.36 118.95,-576.71 53.57,-193.07 77.74,-393.03 88.63,-592.71 4.55,-43.33 3.07,-90.58 26.6,-128.89 22.88,-31.81 68.36,-24.27 101.47,-17.4 48.54,10.51 66.78,63.98 74.77,107.13 17.3,111.7 2.04,225.35 -15.81,336.12 -26.12,163.68 -84.25,319.74 -122.02,480.73 -40.45,162.56 -59.05,330.25 -56.82,497.66 0.09,28.27 13.02,62.87 44.92,67.14 47.8,4.66 89.75,-25.3 125.65,-53.1 89.18,-74.41 154.66,-172.72 210.46,-273.44 97.84,-180.7 161.36,-378.33 203.12,-578.94 8.74,-33.48 15.9,-71.8 44.18,-94.87 27.15,-19.25 62.21,-5.48 88.44,8.56 61.2,35.06 124.91,85.47 135.13,160.05 12.37,91.61 -22.96,180.15 -34.04,270.18 -11.99,85.65 -8.83,173.73 10.05,258.18 17.02,74.87 62.49,138.01 104.62,200.61 66.68,-38.69 124.07,-92.64 166.1,-157.27 89.56,-135.51 130.86,-296.13 157.93,-454.42 38.22,-241.15 42.03,-486.68 28.64,-730.16 -0.46,-44.73 -1.66,-93 21.68,-132.9z"/>
   <g>
    <path class="fil0" d="M5057.77 5324.32c3.26,-14.32 11.44,-31.81 28.74,-31.34 36.45,0.37 68.82,20.27 104.07,27.62 16.37,5.94 41.67,4.65 43.72,27.62 11.25,71.06 4.08,143.87 -2.7,215.12 -25.39,200.33 -76.82,396.01 -116.44,593.73 -28.36,143.87 -57.48,289.43 -54.23,436.74 3.44,71.8 14.23,153.82 72.45,203.21 53.29,44.08 127.7,35.53 191.4,26.97 158.01,-23.8 291.01,-118.67 421.86,-203.68 65.21,-43.9 136.16,-78.77 199.12,-125.92 27.43,-21.39 56.08,-46.04 66.32,-80.54 7.9,-35.16 4.65,-71.71 11.99,-106.96 13.3,-70.49 49.95,-133.83 89.1,-192.98 35.43,-51.15 69.01,-104.16 112.52,-148.99 98.77,-104.63 212.05,-197.45 340.67,-263.01 82.68,-41.21 176.8,-72.54 269.99,-55.43 92.07,16.45 166.75,92.35 191.21,181.26 30.97,107.7 23.16,223.11 -3.35,330.91 -41.01,163.59 -135.69,315.65 -273.05,415.16 -140.53,102.68 -319.29,144.62 -491.52,135.98 -69.84,-2.79 -125,-48.84 -178.28,-88.64 -179.69,124.81 -351.09,263.2 -545.18,365.69 -97.84,50.42 -210.65,57.48 -318.72,55.52 -93.56,-2.42 -192.05,-27.34 -260.78,-94.49 -75.33,-72.26 -104.16,-178.66 -112.44,-279.65 -18.79,-279.47 69.85,-549.56 126.39,-819.73 30.88,-174.38 46.5,-351.56 87.14,-524.17zm1227.27 951.7l0 0c-32.18,57.29 -31.62,136.06 13.02,186.75 43.61,44.55 113.55,37.29 168.61,22.5 96.25,-28.92 187.12,-80.44 258.08,-152.06 91.6,-99.7 107.04,-242.65 107.97,-372.1 -23.34,-1.77 -49.75,4.46 -70.4,-9.4 -18.5,-11.44 -17.49,-35.52 -22.97,-53.94 -197.07,52.18 -361.88,198.84 -454.32,378.25z"/>
   </g>
   <path class="fil0" d="M7860.69 5517.2c21.95,-3.16 48.73,-13.29 67.98,3.16 18.6,21.03 16.75,51.9 18.5,78.31 -1.02,62.6 0.93,125.74 -7.35,187.97 -1.11,23.15 -19.8,38.22 -35.06,53.19 -41.29,38.69 -58.86,94.4 -78.86,145.64 -50.77,146.67 -87.7,297.8 -143.22,442.79 -36.64,93.94 -77.74,188.33 -141.83,267.2 -44.92,54.4 -106.96,94.96 -175.49,112.25 -43.34,11.53 -98.22,-9.48 -109.01,-56.27 -6.78,-52.27 -0.92,-105.37 -5.3,-157.92 -5.02,-148.06 -43.8,-291.75 -63.98,-437.85 -18.14,-117.29 -45.49,-235.21 -102.4,-340.21 -18.98,-29.76 5.21,-61.47 22.5,-85.28 13.03,-19.15 39.34,-33.48 61.02,-18.6 34.32,22.5 51.61,62.13 68.91,97.93 49.66,114.94 79.51,237.15 107.61,358.7 23.99,107.42 45.02,215.49 60.08,324.49 2.05,17.11 8.09,35.52 25.77,42.41 15.16,-1.49 25.38,-12.47 29.66,-26.6 82.59,-282.65 212.33,-549.75 285.98,-835.26 13.4,-44.46 11.25,-93.65 32.64,-135.41 26.23,-10.32 54.4,-14.41 81.85,-20.65z"/>
   <path class="fil0" d="M2991.06 5660.8c28.74,-20.46 65.1,-8.65 94.22,4.47 44.07,19.71 92.07,46.31 109.19,94.57 14.22,38.41 0.65,79.62 -17.58,114.12 -22.5,40.65 -20.09,88.64 -19.07,133.55 9.95,195.68 55.34,391.08 30.98,587.42 -10.52,81.55 -42.5,171.59 -120.16,211.58 -79.89,38.97 -176.61,30.4 -256.88,-3.08 -105.55,-46.13 -178.19,-140.71 -242.36,-232.6 -51.15,-74.03 -99.23,-150.38 -157.08,-219.49 -12.1,93.94 -36.93,185.73 -48.55,279.76 -10.04,81.56 34.6,154.57 50.69,231.95 5.48,30.13 4.93,77.85 -33.76,84.36 -48.83,8.55 -99.42,6.88 -148.52,1.58 -61.75,-12.37 -85.1,-81.28 -90.59,-136.53 -12.09,-142.56 21.76,-283.74 55.62,-421.21 35.16,-127.96 48.26,-260.31 61.66,-391.82 8.47,-72.07 13.67,-145.83 39.15,-214.36 12.18,-32.18 36.36,-66.32 73.93,-68.27 46.96,-3.26 104.73,4.37 130.95,48.84 24.09,42.59 27.44,92.72 35.82,140.06 24.18,176.05 86.39,347.17 182.28,496.82 62.03,94.02 143.68,185.35 255.66,217.25 12.09,-95.52 32.09,-190.2 38.59,-286.27 -3.81,-199.4 -45.75,-396.09 -50.58,-595.5 1.67,-26.88 -2.24,-62.78 26.41,-77.19z"/>
   <path class="fil0" d="M10681.47 5662.02c29.11,-3.16 65.38,-14.33 89.37,8.65 31.43,31.16 50.04,77.85 42.32,122.3 -5.96,30.42 -37.01,44.45 -60.54,59.52 -45.95,28.36 -97.29,45.57 -147.33,65.01 -67.42,26.78 -120.9,77.1 -178.56,119.33 -39.15,31.34 -83.33,61.56 -105.38,108.07 -17.67,39.15 13.57,77.65 40.18,103.61 52.08,49.29 129.18,40.45 194.93,37.48 110.02,-9.4 223.87,8.65 322.07,60.36 56.36,29.39 96.72,85.47 105.09,148.71l0 67.8c-13.48,107.13 -101.93,184.51 -194.65,227.95 -90.49,43.44 -189.08,68.36 -288.21,81.19 -83.52,12.37 -165.09,-72.72 -146.3,-155.87 5.86,-35.99 39.8,-58.97 73.76,-64.64 90.95,-16.92 183.77,9.48 274.82,-6.32 32.64,-5.21 66.5,-26.51 71.71,-61.57 3.35,-26.88 5.02,-60.54 -17.2,-80.16 -32.66,-1.21 -62.97,12.64 -93.19,22.97 -91.42,33.57 -187.4,53.28 -284.22,62.4 -274.73,26.42 -543.51,98.3 -819.17,115.05 -74.49,-0.65 -147.68,-27.35 -208.97,-69.01 -46.5,-32 -86.49,-83.24 -82.78,-142.58 2.79,-79.97 55.52,-146.66 111.79,-198.75 91.24,-83.97 198.94,-147.78 289.62,-232.5 49.84,-45.2 90.21,-101 112.16,-164.9 -71.52,-24.64 -148.34,-22.96 -222.37,-12.93 -137.83,17.68 -271.57,58.22 -409.4,75.89 -2.5,44.18 -7.24,88.35 -17.48,131.5 -18.14,79.43 -14.51,161.55 -10.6,242.28 6.14,91.79 17.11,186.2 57.94,269.99 17.67,37.48 49.38,65.94 68.17,102.68 1.39,42.32 -31.81,75.23 -54.12,108.16 -16.84,20.27 -38.88,53.85 -69.66,39.99 -35.62,-18.69 -62.97,-49.2 -93.1,-75.15 -79.23,-68.72 -108.07,-176.15 -118.67,-276.59 -16.18,-151.41 11.99,-302.07 25.58,-452.46 -61.01,11.44 -124.53,26.04 -186.1,10.89 -24.92,-5.86 -48.35,-25.58 -49.95,-52.55 -2.97,-51.89 28.19,-96.63 52.65,-139.68 -82.4,-0.09 -165.08,-4.28 -247.21,3.26 -83.51,7.44 -161.54,39.99 -242.45,59.15 -37.01,10.32 -78.96,15.06 -107.89,42.6 -31.34,36.36 -26.69,88.25 -31.99,132.9 84.73,-14.69 172.05,-1.67 256.03,-22.42 68.27,-12.09 135.89,-45.85 206.28,-31.71 46.69,12.18 57.48,70.31 46.78,110.95 -16.65,49.19 -68.83,72.35 -114.02,88.82 -105.84,34.41 -216.14,51.53 -325.69,68.63 -45.2,5.96 -92.91,33.12 -99.7,82.31 -14.41,93.75 13.4,187.22 31.43,278.64 82.13,-4.36 169.26,-21.85 231.2,-79.97 63.53,-54.97 82.4,-143.97 146.3,-198.66 21.2,-15.71 49.01,-17.02 73.84,-24.08 23.44,37.11 64.17,74.31 51.99,122.58 -14.97,68.72 -48.91,132.15 -90.12,188.6 -68.54,91.33 -159.5,170.01 -268.68,207.58 -77.93,27.16 -168.52,23.53 -239.29,-21.2 -95.33,-60.27 -157.65,-166.66 -171.03,-277.89 -14.14,-118.39 10.41,-236.31 27.72,-353.03 20.83,-127.14 26.88,-256.04 26.88,-384.76 125.92,-103.23 292.95,-148.43 454.13,-144.34 124.16,0.38 248.32,-5.3 372.48,-5.39 37.85,2.51 82.5,-1.12 112.44,26.69 21.95,27.43 19.34,65.48 25.39,98.49 49.57,-27.99 87.32,-85.84 149.54,-83.89 163.78,-7.71 322.63,-52.27 484.64,-74.22 103.05,-13.67 208.7,-27.53 311.93,-7.44 62.22,13.95 127.78,37.67 167.68,90.31 32.64,42.87 33.58,101.37 20.1,151.6 -21.11,75.52 -65.57,142.01 -114.02,202.65 -73.29,91.98 -174.38,154.85 -265.43,227.11 -35.9,29.11 -74.22,57.38 -99.89,96.53 -12.09,16.93 -16.46,43.81 2.42,57.76 40.92,31.06 96.45,23.34 144.62,21.19 193.26,-21.48 382.42,-76.72 577.91,-78.77 -46.5,-34.87 -93.09,-73.46 -119.04,-126.66 -37.01,-70.12 -31.89,-155.69 -1.39,-227.12 39.25,-93.18 107.89,-170.75 183.78,-236.13 103.69,-86.86 224.32,-159.4 358.15,-186.74z"/>
   <path class="fil0" d="M3608.14 5722c201.44,-14.88 403.53,-5.58 605.26,-6.13 18.98,-0.28 38.03,0.46 56.92,3.53 5.39,44.18 1.96,91.98 -17.3,132.62 -21.02,37.57 -70.31,27.9 -105.74,25.49 -86.59,-11.25 -175.03,-13.21 -260.88,4.56 -75.23,15.62 -150.76,30.04 -225.25,48.92 -35.44,10.13 -74.41,19.9 -99.99,48.54 -19.44,24.55 -27.15,55.98 -33.66,86.02 -1.4,12.56 -8.28,28.55 6.23,36.45 19.72,12.19 44.92,6.05 66.87,4.66 114.02,-16.84 227.39,-57.39 343.93,-41.29 55.34,6.13 108.9,44.36 120.81,100.81 6.97,31.34 -22.32,55.34 -49.76,62.31 -65.95,18.5 -135.32,15.26 -202.85,23.26 -95.88,9.29 -205.07,30.5 -264.21,114.58 -62.49,92.45 -46.03,211.58 -24.27,314.54 83.7,-1.58 171.68,-19.07 237.34,-74.5 58.87,-46.68 91.15,-116.25 124.35,-181.63 14.13,-25.01 33.11,-59.89 67.33,-53.85 31.43,8.28 64.26,28 76.45,59.71 15.34,59.99 5.02,125 -24.46,179.22 -50.03,93.94 -128.07,170.67 -214.56,231.49 -67.14,45.11 -144.33,85.93 -227.76,80.44 -72.73,-2.51 -146.02,-33.2 -191.77,-91.05 -55.81,-69.38 -76.54,-159.23 -86.78,-245.71 -26.5,-239.76 25.01,-478.22 29.48,-717.61 3.35,-43.91 37.57,-78.4 75.52,-96.82 67.9,-33.11 144.44,-41.48 218.75,-48.54z"/>
   <path class="fil0" d="M1839.41 5774.92c44.55,-12.28 98.49,-28.55 139.13,2.61 41.67,35.81 43.72,95.88 46.96,146.67 3.26,142.85 -22.5,288.03 13.3,428.75 12.83,67.52 46.22,128.53 63.71,194.47 9.67,25.2 -17.21,41.01 -38.79,41.01 -62.12,5.4 -130.95,3.91 -184.23,-32.73 -42.79,-29.58 -61.67,-81.75 -68.45,-131.23 -11.44,-86.21 -2.05,-173.18 4.65,-259.39 11.9,-129.74 22.69,-259.76 23.72,-390.15z"/>
  </g>
 </g>
</svg>
